<?xml version="1.0" standalone="no"?>
<!DOCTYPE svg PUBLIC "-//W3C//DTD SVG 20010904//EN"
 "http://www.w3.org/TR/2001/REC-SVG-20010904/DTD/svg10.dtd">
<svg version="1.0" xmlns="http://www.w3.org/2000/svg"
 width="512.000000pt" height="512.000000pt" viewBox="0 0 512.000000 512.000000"
 preserveAspectRatio="xMidYMid meet">
<metadata>
Created by potrace 1.14, written by Peter Selinger 2001-2017
</metadata>
<g transform="translate(0.000000,512.000000) scale(0.100000,-0.100000)"
fill="#000000" stroke="none">
<path d="M2378 5115 c-2 -1 -39 -5 -82 -9 -44 -4 -82 -9 -85 -11 -4 -2 -34 -7
-66 -10 -33 -4 -128 -24 -211 -45 -343 -87 -637 -228 -921 -441 -181 -137
-363 -320 -505 -510 -109 -146 -234 -362 -303 -524 -52 -122 -126 -354 -140
-435 -3 -19 -8 -42 -10 -50 -41 -146 -64 -545 -44 -755 32 -314 120 -627 256
-900 51 -102 56 -112 130 -232 183 -301 495 -611 816 -809 299 -185 696 -327
1007 -360 30 -3 62 -8 70 -11 8 -3 107 -6 220 -8 511 -8 931 104 1370 364 161
95 387 272 498 391 19 19 53 55 76 80 126 134 269 338 366 522 159 304 250
601 287 944 17 155 7 541 -16 621 -5 17 -7 33 -5 36 5 5 -40 215 -61 286 -9
30 -18 62 -20 70 -2 9 -24 72 -50 141 -99 261 -271 556 -430 740 -253 290
-475 468 -789 631 -367 190 -722 278 -1148 284 -114 2 -208 2 -210 0z"/>
</g>
</svg>
